<svg width="18" height="22" viewBox="0 0 18 22" fill="none" xmlns="http://www.w3.org/2000/svg">
<path fill-rule="evenodd" clip-rule="evenodd" d="M8.97037 0.75C7.369 0.75 6.03836 0.807084 4.95892 1.02799C3.86591 1.25168 2.9651 1.65608 2.28832 2.39749C1.61952 3.13015 1.24741 4.10742 1.03412 5.31915C0.821208 6.52872 0.754371 8.04736 0.754371 9.929C0.754371 10.6552 0.753138 11.337 0.751982 11.9766L0.751982 11.9766C0.746516 15.0013 0.742757 17.0807 0.879134 18.4369C0.960502 19.2461 1.10081 19.9329 1.40933 20.4262C1.57525 20.6915 1.7956 20.9113 2.08172 21.0577C2.36272 21.2015 2.65939 21.25 2.94337 21.25C3.59215 21.25 4.22123 20.8931 4.72902 20.5403C5.22473 20.1959 5.74653 19.7499 6.23999 19.3282L6.35679 19.2284C6.9017 18.7633 7.4135 18.3339 7.8938 18.0186C8.392 17.6915 8.74221 17.566 8.97037 17.566C9.19853 17.566 9.54874 17.6915 10.0469 18.0186C10.5272 18.3339 11.039 18.7633 11.584 19.2284L11.7007 19.3282C12.1942 19.7499 12.716 20.1959 13.2117 20.5403C13.7195 20.8931 14.3486 21.25 14.9974 21.25C15.2813 21.25 15.578 21.2015 15.859 21.0577C16.1451 20.9113 16.3655 20.6915 16.5314 20.4262C16.8399 19.9329 16.9802 19.2461 17.0616 18.4369C17.198 17.0807 17.1942 15.0013 17.1888 11.9766C17.1876 11.337 17.1864 10.6552 17.1864 9.929C17.1864 8.04736 17.1195 6.52872 16.9066 5.31915C16.6933 4.10742 16.3212 3.13015 15.6524 2.39749C14.9756 1.65608 14.0748 1.25168 12.9818 1.02799C11.9024 0.807084 10.5717 0.75 8.97037 0.75ZM2.25437 9.929C2.25437 8.06214 2.32241 6.65291 2.51141 5.57919C2.70002 4.50764 2.99684 3.84622 3.39617 3.40876C3.78752 2.98004 4.35402 2.68288 5.25967 2.49754C6.17888 2.30942 7.37824 2.25 8.97037 2.25C10.5625 2.25 11.7619 2.30942 12.6811 2.49754C13.5867 2.68288 14.1532 2.98004 14.5446 3.40876C14.9439 3.84622 15.2407 4.50764 15.4293 5.57919C15.6183 6.65291 15.6864 8.06214 15.6864 9.929C15.6864 10.6729 15.6875 11.3657 15.6886 12.0109C15.6938 15.0367 15.6971 17.014 15.5691 18.2868C15.4903 19.0713 15.3706 19.4535 15.2596 19.6309C15.2158 19.7009 15.1866 19.7168 15.1758 19.7223C15.1599 19.7305 15.1124 19.75 14.9974 19.75C14.8486 19.75 14.554 19.6464 14.0676 19.3085C13.6365 19.0089 13.1701 18.6105 12.658 18.1731L12.5578 18.0876C12.0237 17.6317 11.442 17.1401 10.8702 16.7647C10.3163 16.401 9.65571 16.066 8.97037 16.066C8.28503 16.066 7.62449 16.401 7.07057 16.7647C6.49874 17.1401 5.91704 17.6317 5.38295 18.0876L5.28271 18.1732L5.28267 18.1732C4.77062 18.6105 4.30423 19.0089 3.8731 19.3085C3.38676 19.6464 3.0921 19.75 2.94337 19.75C2.82835 19.75 2.78081 19.7305 2.76491 19.7223C2.75413 19.7168 2.7249 19.7009 2.68109 19.6309C2.57018 19.4535 2.45049 19.0713 2.37161 18.2868C2.24361 17.014 2.24697 15.0367 2.2521 12.011C2.2532 11.3658 2.25437 10.6729 2.25437 9.929ZM5.5426 7.4677C5.12839 7.4677 4.7926 7.80348 4.7926 8.2177C4.7926 8.63191 5.12839 8.9677 5.5426 8.9677H12.3976C12.8118 8.9677 13.1476 8.63191 13.1476 8.2177C13.1476 7.80348 12.8118 7.4677 12.3976 7.4677H5.5426Z" fill="#D9D9D9"/>
</svg>
