<svg width="24" height="24" viewBox="0 0 24 24" fill="none" xmlns="http://www.w3.org/2000/svg">
<path d="M20.4699 6.20566L20.4701 6.20576C21.1412 6.67557 21.706 7.38642 22.1023 8.14559C22.4987 8.90477 22.76 9.77628 22.76 10.6002V17.3802C22.76 20.3444 20.3542 22.7502 17.39 22.7502H6.60999C3.64367 22.7502 1.23999 20.3323 1.23999 17.3702V10.4702C1.23999 9.69684 1.47816 8.86795 1.83713 8.13889C2.19627 7.40947 2.7083 6.71499 3.31855 6.23893C3.31861 6.23889 3.31866 6.23885 3.31872 6.2388L8.32856 2.32893L8.33062 2.32732L8.33062 2.32732C10.1003 0.956103 12.8707 0.887316 14.7099 2.17566L20.4699 6.20566ZM20.4699 6.20566L14.7103 2.17594L20.4699 6.20566Z" stroke="#D9D9D9" stroke-width="1.5"/>
</svg>
